<svg width="96" height="96" viewBox="0 0 96 96" fill="none" xmlns="http://www.w3.org/2000/svg">
<path fill-rule="evenodd" clip-rule="evenodd" d="M38.25 51.1785C37.0691 50.2826 35.4941 49.837 33.5565 49.837H23.7711V61.0946H33.3761C34.2646 61.0946 35.1073 61.0159 35.9002 60.8384C36.7051 60.6625 37.4191 60.3835 38.0211 59.9713C38.623 59.5748 39.1216 59.0313 39.4841 58.3401C39.8478 57.655 40.0221 56.7651 40.0221 55.6903C40.0221 53.5829 39.4294 52.0874 38.25 51.1785Z" fill="black"/>
<path fill-rule="evenodd" clip-rule="evenodd" d="M36.8399 42.5468C37.8752 41.791 38.3772 40.542 38.3772 38.8289C38.3772 37.8776 38.2105 37.0914 37.8752 36.4815C37.5281 35.8713 37.0688 35.3938 36.4882 35.0596C35.9122 34.7117 35.2617 34.4714 34.5068 34.3418C33.7656 34.1969 32.9879 34.1401 32.1918 34.1401H23.7706V43.6929H32.8786C34.4736 43.6929 35.794 43.3146 36.8399 42.5468Z" fill="black"/>
<path fill-rule="evenodd" clip-rule="evenodd" d="M0 0V96H96V0H0ZM58.1562 29.9187H74.7272V33.9528H58.1562V29.9187ZM47.8112 61.547C47.0109 63.0669 45.9209 64.2985 44.5775 65.249C43.2238 66.2079 41.6684 66.9112 39.9265 67.369C38.2044 67.8269 36.4156 68.0572 34.5843 68.0572H14.7692V27.1762H34.0433C35.9989 27.1762 37.7634 27.3452 39.3765 27.6948C40.9804 28.0352 42.3493 28.6029 43.5059 29.3813C44.6444 30.1598 45.5359 31.1951 46.1739 32.4997C46.7969 33.7846 47.1094 35.3938 47.1094 37.2963C47.1094 39.3543 46.6425 41.0732 45.7087 42.4474C44.7672 43.8193 43.3848 44.9451 41.5368 45.819C44.0532 46.5421 45.9165 47.8156 47.1518 49.6263C48.3935 51.4495 49.0014 53.6307 49.0014 56.1883C49.0011 58.2612 48.6041 60.0464 47.8112 61.547ZM81.1791 55.2141H59.8192C59.8192 57.554 60.6104 59.7696 61.8324 60.9587C63.0496 62.1481 64.8097 62.746 67.0897 62.746C68.7299 62.746 70.1473 62.3314 71.3358 61.5052C72.5138 60.6798 73.2307 59.7975 73.5082 58.8811H80.6681C79.5175 62.4443 77.7712 64.988 75.3895 66.5193C73.0353 68.0572 70.1638 68.8236 66.8183 68.8236C64.4867 68.8236 62.3886 68.4461 60.5043 67.7026C58.6214 66.9498 57.0478 65.8948 55.7245 64.5198C54.4343 63.138 53.4323 61.5054 52.7183 59.5869C52.012 57.6789 51.6556 55.5665 51.6556 53.2773C51.6556 51.064 52.0255 48.9961 52.7485 47.0852C53.4868 45.1675 54.5071 43.5129 55.8488 42.125C57.1934 40.7295 58.7881 39.6282 60.6452 38.8241C62.5023 38.0228 64.5502 37.6196 66.8183 37.6196C69.3226 37.6196 71.5162 38.1015 73.3961 39.0832C75.2697 40.0512 76.8055 41.3633 78.0121 43.0059C79.2188 44.6455 80.0769 46.5208 80.6136 48.6241C81.1457 50.7239 81.3323 52.9175 81.1791 55.2141Z" fill="black"/>
<path fill-rule="evenodd" clip-rule="evenodd" d="M66.5742 43.7588C65.2751 43.7588 64.2002 43.9772 63.3393 44.4228C62.4979 44.8625 61.8082 45.4096 61.2807 46.0539C60.7562 46.7088 60.3983 47.4 60.1907 48.1391C59.9816 48.8592 59.8574 49.5127 59.8194 50.0904H73.0478C72.8537 48.0172 72.1441 46.4846 71.174 45.4068C70.2081 44.3371 68.5708 43.7588 66.5742 43.7588Z" fill="black"/>
</svg>
