<svg width="96" height="96" viewBox="0 0 96 96" fill="none" xmlns="http://www.w3.org/2000/svg">
<path d="M93.1195 0H2.88169C1.51225 0 0.402405 1.10985 0.402405 2.47929V93.5207C0.402405 94.8903 1.51225 96 2.88169 96H32.8796V95.9782C34.2334 95.9627 35.2708 95.2047 35.3184 93.9221C35.4415 90.5885 35.3546 87.2478 35.3546 84.0249C32.9385 84.1376 30.632 84.4428 28.3514 84.3113C23.3215 84.0217 19.4564 81.8755 17.4519 76.9502C16.2644 74.0324 14.4752 71.5367 11.6887 69.8713C11.1683 69.56 10.7133 69.1017 10.3152 68.6362C9.7948 68.0292 9.89214 67.4055 10.7143 67.2389C11.5438 67.0702 12.45 66.9524 13.268 67.1054C16.4806 67.7084 18.7022 69.7233 20.4027 72.4032C23.7652 77.705 28.9409 79.3279 34.7639 76.8796C35.0886 76.743 35.5013 76.4121 35.5625 76.1101C36.032 73.7631 36.9091 71.6232 38.6767 69.7471C36.7115 69.3831 34.8912 69.1152 33.106 68.7013C27.9654 67.5118 23.3474 65.3719 19.9704 61.1218C17.2151 57.6549 15.9552 53.5964 15.376 49.277C14.4689 42.5116 15.2808 36.1787 19.9269 30.7722C20.1617 30.4991 20.2889 29.9396 20.1845 29.5994C19.0209 25.7973 19.1987 22.0271 20.352 18.2675C20.9572 16.293 21.1257 16.1946 23.1405 16.4698C23.2637 16.4863 23.3836 16.5173 23.5058 16.5381C27.5446 17.2063 31.021 19.162 34.4455 21.2617C34.9059 21.5441 35.6071 21.7199 36.1129 21.5968C44.2922 19.6121 52.456 19.6203 60.6342 21.6041C61.109 21.7189 61.7431 21.5554 62.197 21.3177C64.0587 20.3444 65.8409 19.2129 67.7265 18.2901C69.9201 17.2176 72.2308 16.4108 74.7183 16.4552C75.1537 16.4635 75.8272 16.8793 75.9728 17.2641C77.4695 21.2296 77.7851 25.2707 76.5924 29.3976C76.4652 29.8382 76.6544 30.466 76.8914 30.9003C78.0685 33.06 79.7119 35.0531 80.4567 37.344C82.7271 44.3265 81.8997 51.241 78.8091 57.8036C75.9771 63.8191 70.7249 66.8673 64.5078 68.4395C62.4081 68.9702 60.2568 69.2928 57.9917 69.7376C60.9601 72.8385 61.4255 76.6228 61.3728 80.5863C61.318 84.6749 61.3325 88.7646 61.3303 92.8542C61.3293 94.8349 62.194 95.9292 63.703 95.9932C63.702 95.9995 95.5979 95.9995 95.5979 95.9995V2.47929C95.5976 1.10985 94.4879 0 93.1195 0Z" fill="black"/>
</svg>
